<svg width="32" height="32" viewBox="0 0 32 32" fill="none" xmlns="http://www.w3.org/2000/svg">
<path fill-rule="evenodd" clip-rule="evenodd" d="M21.2386 5.10668C20.3306 4.94045 19.3935 4.95483 18.4818 5.15498C17.0582 5.46754 15.7679 6.21748 14.7916 7.2998C13.8154 8.38213 13.202 9.74265 13.0374 11.1909C12.8728 12.6391 13.1653 14.1026 13.8737 15.3764C14.1042 15.7907 14.0121 16.3098 13.6532 16.6195L5.5588 23.6056C5.19723 23.9793 4.99463 24.4792 4.99463 25C4.99463 25.5318 5.20589 26.0418 5.58194 26.4179C5.95799 26.7939 6.46802 27.0052 6.99983 27.0052C7.52064 27.0052 8.02055 26.8026 8.3942 26.441L15.3803 18.3466L16.1373 19L16.6234 18.1261C17.8972 18.8346 19.3607 19.127 20.8089 18.9624C22.2572 18.7978 23.6177 18.1844 24.7 17.2082C25.7823 16.2319 26.5323 14.9416 26.8448 13.518C27.045 12.6063 27.0594 11.6692 26.8931 10.7612L22.8328 14.8312C22.596 15.0686 22.256 15.1715 21.9274 15.1053L18.3899 14.3928C17.9951 14.3133 17.6865 14.0047 17.607 13.6099L16.8945 10.0724C16.8283 9.74377 16.9312 9.40381 17.1686 9.16703L21.2386 5.10668ZM16.3877 20.2404L9.88187 27.7784C9.86589 27.7969 9.84923 27.8148 9.83194 27.8321C9.08082 28.5832 8.06208 29.0052 6.99983 29.0052C5.93759 29.0052 4.91885 28.5832 4.16773 27.8321C3.4166 27.081 2.99463 26.0622 2.99463 25C2.99463 23.9377 3.4166 22.919 4.16773 22.1679C4.18502 22.1506 4.20294 22.1339 4.22146 22.1179L11.7594 15.6121C11.1169 14.158 10.8696 12.5544 11.0502 10.9651C11.2619 9.10228 12.0508 7.35234 13.3065 5.96023C14.5622 4.56812 16.2218 3.60353 18.053 3.20151C19.8841 2.79949 21.7952 2.98016 23.5185 3.71824C23.8238 3.84897 24.0442 4.12272 24.1069 4.44884C24.1695 4.77495 24.0662 5.11089 23.8311 5.34543L18.9611 10.2038L19.4364 12.5634L21.796 13.0387L26.6544 8.16872C26.8889 7.93362 27.2249 7.83029 27.551 7.89294C27.8771 7.95558 28.1508 8.17603 28.2816 8.48129C29.0196 10.2047 29.2003 12.1157 28.7983 13.9468C28.3963 15.778 27.4317 17.4376 26.0396 18.6933C24.6475 19.949 22.8975 20.7379 21.0348 20.9496C19.4454 21.1302 17.8418 20.8829 16.3877 20.2404Z" fill="white"/>
</svg>
