<svg width="50" height="50" viewBox="0 0 50 50" fill="none" xmlns="http://www.w3.org/2000/svg">
<circle cx="25" cy="25" r="25" fill="#14142A"/>
<path fill-rule="evenodd" clip-rule="evenodd" d="M10.7733 26.3972C10.839 27.5344 11.9883 27.0145 12.5138 26.6571C13.0063 26.2997 13.1705 26.5921 13.2034 25.9098C13.2362 25.4549 13.2691 25.0325 13.2691 24.5776C12.5138 24.5126 11.6928 24.6751 11.0688 25.13C10.7733 25.3574 10.1494 26.1047 10.7733 26.3972Z" fill="#F6D2A2"/>
<path d="M11.3972 27.2095C11.1674 27.2095 10.7405 27.112 10.6748 26.4621C10.4777 26.3322 10.4121 26.1697 10.4121 26.0722C10.3792 25.6823 10.8061 25.2274 11.036 25.065C11.5614 24.6751 12.2511 24.4801 12.9735 24.4801H13.4004V24.5776C13.4333 24.935 13.4004 25.2924 13.3676 25.6173C13.3676 25.7148 13.3676 25.8123 13.3347 25.9098C13.3019 26.3972 13.2034 26.4621 12.9735 26.5596C12.875 26.5921 12.7765 26.6246 12.6123 26.7546C12.4481 26.852 11.8898 27.2095 11.3972 27.2095ZM12.9735 24.6751C12.2839 24.6751 11.6599 24.87 11.1674 25.2274C10.9375 25.3899 10.6091 25.7798 10.6419 26.0397C10.6419 26.1372 10.7076 26.2347 10.839 26.2997L10.9047 26.3322V26.3972C10.9375 26.917 11.2002 26.982 11.3972 26.982C11.7256 26.982 12.1854 26.7546 12.4809 26.5596C12.678 26.4296 12.8093 26.3972 12.9078 26.3647C13.072 26.2997 13.1049 26.2997 13.1377 25.9098C13.1377 25.8123 13.1377 25.7148 13.1705 25.6173C13.2034 25.3249 13.2034 25 13.2034 24.7075C13.1049 24.6751 13.0392 24.6751 12.9735 24.6751Z" fill="black"/>
<path fill-rule="evenodd" clip-rule="evenodd" d="M10.7733 26.3971C10.9375 26.3322 11.1345 26.2997 11.2331 26.1372L10.7733 26.3971Z" fill="#C6B198"/>
<path d="M10.7733 26.4947C10.7405 26.4947 10.6748 26.4622 10.6748 26.4297C10.6419 26.3647 10.6748 26.2997 10.7405 26.2997C10.7733 26.2997 10.8061 26.2672 10.8061 26.2672C10.9375 26.2022 11.0688 26.1697 11.1345 26.0723C11.1674 26.0398 11.233 26.0073 11.2987 26.0398C11.3316 26.0723 11.3644 26.1372 11.3316 26.2022C11.2002 26.3647 11.036 26.4297 10.9047 26.4622L10.839 26.4947H10.7733Z" fill="black"/>
<path fill-rule="evenodd" clip-rule="evenodd" d="M13.4661 12.6529C9.00001 11.4182 12.3167 5.797 15.8962 8.10396L13.4661 12.6529Z" fill="#6AD7E5"/>
<path d="M13.5318 12.7828L13.4333 12.7504C11.1345 12.1005 11.1674 10.4759 11.2331 9.98851C11.3972 8.7538 12.5795 7.4541 14.1557 7.4541C14.7797 7.4541 15.3708 7.64906 15.9619 8.03896L16.0604 8.10395L13.5318 12.7828ZM14.1557 7.68155C12.678 7.68155 11.5943 8.88377 11.4301 10.021C11.2659 11.1907 11.9883 12.1005 13.4004 12.5229L15.732 8.13644C15.2394 7.84401 14.714 7.68155 14.1557 7.68155Z" fill="black"/>
<path fill-rule="evenodd" clip-rule="evenodd" d="M33.268 7.68157C36.7818 5.24464 40 10.7683 35.8951 12.1655L33.268 7.68157Z" fill="#6AD7E5"/>
<path d="M35.8623 12.2955L33.1367 7.6491L33.2352 7.58411C33.8591 7.16171 34.4831 6.93427 35.107 6.93427C36.6176 6.93427 37.7013 8.16897 37.9312 9.37119C38.0297 9.85858 38.1282 11.5157 35.9608 12.2305L35.8623 12.2955ZM33.4322 7.74657L35.9608 12.0681C37.2415 11.6132 37.8983 10.6384 37.7013 9.46867C37.5042 8.36393 36.4862 7.2267 35.107 7.2267C34.5487 7.1942 33.9905 7.35667 33.4322 7.74657Z" fill="black"/>
<path fill-rule="evenodd" clip-rule="evenodd" d="M34.0562 40.5638C34.9428 41.1162 36.5848 42.7733 35.2384 43.5856C33.9576 44.7554 33.2352 42.2859 32.0858 41.961C32.5784 41.3112 33.2023 40.6938 34.0562 40.5638Z" fill="#F6D2A2"/>
<path d="M34.5487 44.008C34.0233 44.008 33.5636 43.4882 33.1695 43.0008C32.8083 42.6109 32.447 42.1885 32.053 42.0585L31.8888 42.026L31.9873 41.896C32.3813 41.3437 33.0381 40.6288 34.0233 40.4664H34.0561L34.089 40.4989C34.6472 40.8563 35.8623 41.8635 35.8294 42.8058C35.8294 43.1632 35.6324 43.4557 35.2712 43.6831C35.0413 43.9106 34.8114 44.008 34.5487 44.008ZM32.25 41.896C32.6441 42.0585 32.9724 42.4809 33.3008 42.8383C33.6949 43.3257 34.089 43.7481 34.5159 43.7481C34.7129 43.7481 34.9099 43.6506 35.107 43.4557H35.1398C35.4354 43.2607 35.5996 43.0333 35.5996 42.7408C35.5996 41.9935 34.6472 41.0512 33.9905 40.6288C33.3994 40.7913 32.8083 41.1812 32.25 41.896ZM35.2383 43.6831C35.2055 43.6831 35.1727 43.6506 35.1398 43.6181C35.0741 43.4882 35.0085 43.3257 34.9756 43.1957C34.8771 42.9358 34.7786 42.6758 34.5816 42.4809C34.5487 42.4484 34.5487 42.3834 34.5816 42.3184C34.6144 42.2859 34.6801 42.2859 34.7458 42.3184C34.9756 42.5459 35.107 42.8383 35.2055 43.1307L35.3697 43.5207C35.4025 43.5856 35.3697 43.6506 35.3369 43.6831H35.2383Z" fill="black"/>
<path fill-rule="evenodd" clip-rule="evenodd" d="M18.0307 42.4484C16.9799 42.6109 16.3888 43.5532 15.5021 44.0405C14.6811 44.5279 14.3527 43.8781 14.2871 43.7481C14.1557 43.6831 14.1557 43.8131 13.9587 43.6181C13.2034 42.4159 14.7468 41.5386 15.5678 40.9538C16.7171 40.6938 17.4396 41.6686 18.0307 42.4484Z" fill="#F6D2A2"/>
<path d="M14.9439 44.3005C14.5169 44.3005 14.2871 43.9431 14.2214 43.8131H14.1886C14.09 43.8131 14.0244 43.7806 13.893 43.6507V43.6182C13.1705 42.4809 14.4184 41.6036 15.2394 41.0188L15.535 40.8238H15.6006C15.732 40.7913 15.8305 40.7913 15.9619 40.7913C16.947 40.7913 17.571 41.6361 18.0964 42.3185L18.2606 42.5459L18.0636 42.5784C17.4396 42.6759 16.9799 43.0658 16.5201 43.4557C16.2246 43.7156 15.929 43.9431 15.6006 44.138C15.3379 44.2355 15.1409 44.3005 14.9439 44.3005ZM14.2214 43.6182C14.2542 43.6182 14.2871 43.6182 14.3527 43.6507H14.3856L14.4184 43.6831C14.4841 43.7806 14.6483 44.073 14.9767 44.073C15.1409 44.073 15.3051 44.0081 15.4693 43.9106C15.7977 43.7481 16.0932 43.4882 16.3559 43.2607C16.7828 42.9033 17.2426 42.5134 17.8337 42.351C17.3411 41.7011 16.75 40.9863 15.929 40.9863C15.8305 40.9863 15.732 40.9863 15.6335 41.0188L15.3708 41.2137C14.5169 41.7986 13.4661 42.5459 14.09 43.5207C14.1229 43.5857 14.1557 43.6182 14.2214 43.6182ZM14.2871 43.8456C14.2214 43.8456 14.1557 43.7806 14.1886 43.7156C14.2214 43.3907 14.3856 43.1633 14.5498 42.9033C14.6483 42.7734 14.714 42.6434 14.7797 42.5134C14.8125 42.4484 14.8782 42.4484 14.911 42.4484C14.9767 42.4809 14.9767 42.5459 14.9767 42.5784C14.911 42.7409 14.8125 42.8708 14.714 43.0008C14.5498 43.2282 14.4184 43.4232 14.3856 43.6831C14.3856 43.8131 14.3527 43.8456 14.2871 43.8456Z" fill="black"/>
<path fill-rule="evenodd" clip-rule="evenodd" d="M13.6631 11.1257C13.072 10.8333 12.6451 10.4109 13.0064 9.72857C13.3347 9.11122 13.9587 9.1762 14.5498 9.46863L13.6631 11.1257ZM34.9756 10.5409C35.5667 10.2484 35.9936 9.82605 35.6324 9.14371C35.304 8.52635 34.6801 8.59134 34.089 8.88377L34.9756 10.5409Z" fill="black"/>
<path fill-rule="evenodd" clip-rule="evenodd" d="M39.0148 26.2347C38.9492 27.3719 37.7998 26.852 37.2744 26.4946C36.7818 26.1372 36.6176 26.4296 36.5848 25.7473C36.5519 25.2924 36.5191 24.87 36.5191 24.4151C37.2744 24.3501 38.0953 24.5126 38.7193 24.9675C39.0477 25.2274 39.6388 25.9422 39.0148 26.2347Z" fill="#F6D2A2"/>
<path d="M38.4237 27.047C37.9311 27.047 37.3729 26.6896 37.2087 26.5922C37.0445 26.4947 36.946 26.4297 36.8475 26.3972C36.5847 26.2997 36.5191 26.2347 36.4862 25.7474C36.4862 25.6499 36.4862 25.5524 36.4534 25.4549C36.4206 25.13 36.3877 24.7726 36.4206 24.4152V24.3177H36.8475C37.5699 24.3177 38.2595 24.5126 38.785 24.9026C39.0148 25.065 39.4417 25.5199 39.4089 25.9098C39.4089 26.0398 39.3432 26.2022 39.1462 26.2997C39.0805 26.9496 38.6536 27.047 38.4237 27.047ZM36.6176 24.5451C36.6176 24.8376 36.6176 25.1625 36.6504 25.4549C36.6504 25.5524 36.6504 25.6499 36.6833 25.7474C36.7161 26.1373 36.7489 26.1373 36.9131 26.2022C37.0117 26.2347 37.143 26.2997 37.34 26.3972C37.6356 26.5922 38.0953 26.8196 38.4237 26.8196C38.6208 26.8196 38.8835 26.7546 38.9163 26.2347V26.1698L38.982 26.1373C39.1134 26.0723 39.179 26.0073 39.179 25.8773C39.2119 25.6174 38.8835 25.2275 38.6536 25.065C38.161 24.7076 37.5042 24.5126 36.8475 24.5126C36.7818 24.5451 36.7161 24.5451 36.6176 24.5451Z" fill="black"/>
<path fill-rule="evenodd" clip-rule="evenodd" d="M39.0148 26.2347C38.8506 26.1697 38.6536 26.1373 38.5551 25.9748L39.0148 26.2347Z" fill="#C6B198"/>
<path d="M39.0148 26.3647H38.982L38.9163 26.3322C38.7521 26.2672 38.5879 26.2347 38.4894 26.0722C38.4566 26.0397 38.4566 25.9423 38.5222 25.9098C38.5551 25.8773 38.6536 25.8773 38.6864 25.9423C38.7521 26.0397 38.8835 26.0722 39.0148 26.1372C39.0477 26.1372 39.0805 26.1697 39.0805 26.1697C39.1462 26.2022 39.179 26.2672 39.1462 26.2997C39.1133 26.3322 39.0477 26.3647 39.0148 26.3647Z" fill="black"/>
<path fill-rule="evenodd" clip-rule="evenodd" d="M24.4672 5.37463C28.9333 5.37463 33.1038 5.99199 35.304 10.2485C37.2744 14.9924 36.5519 20.1262 36.8803 25.1625C37.143 29.484 37.7013 34.4553 35.6981 38.4519C33.5636 42.6434 28.2436 43.7156 23.8761 43.5532C20.428 43.4232 16.2903 42.3185 14.3199 39.1992C12.054 35.56 13.1049 30.1338 13.2691 26.0723C13.4661 21.2634 11.9555 16.422 13.5646 11.7431C15.1737 6.83679 19.6398 5.73205 24.4672 5.37463Z" fill="#6AD7E5"/>
<path d="M24.6313 43.6831H23.8104C22.464 43.6506 20.428 43.4232 18.4248 42.6108C16.4873 41.831 15.0752 40.7263 14.1557 39.2641C12.3167 36.3073 12.6451 32.2458 12.9407 28.6391C13.0064 27.7293 13.072 26.8845 13.1049 26.0722C13.1705 24.3826 13.0392 22.628 12.875 20.9709C12.6123 17.9166 12.3496 14.7649 13.3676 11.7106C14.1557 9.43614 15.5678 7.81152 17.7023 6.77176C19.3771 5.95945 21.446 5.50456 24.4015 5.27711C28.8019 5.24462 33.1695 5.86198 35.3697 10.1835C36.8146 13.6601 36.8146 17.3968 36.8475 21.0034C36.8475 22.3681 36.8475 23.7653 36.946 25.13C36.9788 25.5524 37.0116 25.9748 37.0116 26.3972C37.2744 30.3612 37.5699 34.8452 35.7309 38.4843C34.8114 40.3364 33.2023 41.7011 31.0021 42.5784C29.2288 43.2932 26.9958 43.6831 24.6313 43.6831ZM24.4672 5.47207C19.8369 5.82948 15.3051 6.83675 13.6303 11.7756C12.6123 14.7974 12.875 17.9166 13.1377 20.9384C13.2691 22.628 13.4333 24.3501 13.3676 26.0722C13.3347 26.8845 13.2691 27.7293 13.2034 28.6391C12.9078 32.2133 12.5794 36.2423 14.3856 39.1342C15.1409 40.3364 17.571 43.1957 23.8432 43.4232H24.6642C31.9216 43.4232 34.6144 40.2389 35.5996 38.3543C37.4057 34.7802 37.1102 30.2962 36.8803 26.3647C36.8475 25.9423 36.8146 25.5199 36.8146 25.0975C36.7489 23.7328 36.7161 22.3356 36.7161 20.9709C36.6833 17.3968 36.6833 13.6601 35.2712 10.216C34.286 8.2989 32.8083 6.99921 30.7722 6.25189C28.6705 5.56955 26.3061 5.47207 24.4672 5.47207Z" fill="black"/>
<path fill-rule="evenodd" clip-rule="evenodd" d="M25.2553 11.2882C26.0434 15.9021 33.6621 14.6674 32.5784 10.021C31.5932 5.862 24.9926 7.03172 25.2553 11.2882Z" fill="white"/>
<path d="M28.8676 14.31C27.3898 14.31 25.518 13.5302 25.124 11.3207C25.0583 10.2809 25.3867 9.33866 26.0763 8.62383C26.8316 7.81152 27.9809 7.35663 29.1631 7.35663C30.5424 7.35663 32.1843 8.07146 32.6441 10.0535C32.9068 11.1582 32.7098 12.133 32.0858 12.9128C31.3962 13.7576 30.1812 14.31 28.8676 14.31ZM25.3538 11.2882C25.518 12.198 25.9449 12.9128 26.6345 13.4327C27.2256 13.8876 28.0466 14.115 28.8676 14.115C30.0826 14.115 31.2648 13.5952 31.9216 12.7829C32.5127 12.068 32.6769 11.1257 32.447 10.086C32.0201 8.23392 30.4767 7.58407 29.1631 7.58407C28.0466 7.58407 26.9629 8.03897 26.2405 8.78629C25.6165 9.43614 25.2881 10.3134 25.3538 11.2882Z" fill="black"/>
<path fill-rule="evenodd" clip-rule="evenodd" d="M16.1589 12.0355C17.2098 16.0321 23.679 15.0248 23.4492 10.9958C23.1536 6.1869 15.1409 7.09669 16.1589 12.0355Z" fill="white"/>
<path d="M19.607 14.6999C18.1949 14.6999 16.553 14.0176 16.0275 12.068C15.7977 10.9308 16.0275 9.89104 16.6843 9.11122C17.4068 8.23393 18.589 7.71405 19.8697 7.71405C21.5773 7.71405 23.3835 8.72131 23.5148 10.9958C23.5805 11.9381 23.285 12.7829 22.6282 13.4652C21.9386 14.2125 20.7892 14.6999 19.607 14.6999ZM19.8697 7.9415C18.6547 7.9415 17.5381 8.42888 16.8485 9.24119C16.2246 9.98852 16.0275 10.9308 16.2574 12.003C16.7172 13.8226 18.2934 14.4725 19.607 14.4725C20.7235 14.4725 21.8072 14.0501 22.4968 13.3027C23.0879 12.6854 23.3835 11.8731 23.3178 10.9958C23.2521 9.59861 22.2998 7.9415 19.8697 7.9415Z" fill="black"/>
<path fill-rule="evenodd" clip-rule="evenodd" d="M26.1748 16.8119C26.1748 17.3968 26.3062 18.0791 26.2076 18.729C26.0434 19.0214 25.7479 19.0539 25.4852 19.1514C25.124 19.0864 24.8284 18.8589 24.6642 18.534C24.5657 17.8192 24.697 17.1044 24.7299 16.3895L26.1748 16.8119Z" fill="white"/>
<path d="M25.4852 19.2814C25.0583 19.2164 24.7299 18.9564 24.5657 18.599C24.5 18.0791 24.5329 17.5917 24.5657 17.1044C24.5985 16.8769 24.5985 16.6495 24.5985 16.422V16.2921L26.2733 16.8119V16.8769C26.2733 17.0719 26.3062 17.2668 26.3062 17.4943C26.339 17.9167 26.3718 18.3716 26.3062 18.794V18.8265C26.1748 19.0864 25.9449 19.1514 25.7151 19.2489C25.6494 19.2164 25.5837 19.2489 25.4852 19.2814ZM24.7627 18.5015C24.8941 18.794 25.1568 18.9889 25.4523 19.0539C25.518 19.0214 25.5837 19.0214 25.6165 18.9889C25.8136 18.9239 25.9778 18.859 26.0763 18.6965C26.142 18.3066 26.1091 17.8842 26.0763 17.4618C26.0763 17.2668 26.0434 17.0719 26.0434 16.9094L24.7956 16.5195C24.7956 16.7145 24.7627 16.9094 24.7627 17.0719C24.7299 17.5917 24.697 18.0466 24.7627 18.5015Z" fill="black"/>
<path fill-rule="evenodd" clip-rule="evenodd" d="M19.0487 11.3857C19.0487 12.0355 18.5561 12.5554 17.965 12.5554C17.3739 12.5554 16.8813 12.0355 16.8813 11.3857C16.8813 10.7358 17.3739 10.2159 17.965 10.2159C18.5561 10.2159 19.0487 10.7358 19.0487 11.3857Z" fill="black"/>
<path fill-rule="evenodd" clip-rule="evenodd" d="M18.6875 11.6456C18.6875 11.8081 18.5561 11.9381 18.4248 11.9381C18.2934 11.9381 18.1621 11.8081 18.1621 11.6456C18.1621 11.4832 18.2934 11.3532 18.4248 11.3532C18.589 11.3532 18.6875 11.4832 18.6875 11.6456Z" fill="white"/>
<path fill-rule="evenodd" clip-rule="evenodd" d="M28.2108 11.0932C28.2108 11.7431 27.7182 12.263 27.1271 12.263C26.536 12.263 26.0434 11.7431 26.0434 11.0932C26.0434 10.4434 26.536 9.92352 27.1271 9.92352C27.7182 9.92352 28.2108 10.4434 28.2108 11.0932Z" fill="black"/>
<path fill-rule="evenodd" clip-rule="evenodd" d="M27.8824 11.3532C27.8824 11.5156 27.7839 11.6456 27.6197 11.6456C27.4883 11.6456 27.357 11.5156 27.357 11.3532C27.357 11.1907 27.4555 11.0607 27.6197 11.0607C27.751 11.0607 27.8824 11.1907 27.8824 11.3532ZM23.0222 16.7469C22.5296 17.8841 23.2849 20.1911 24.5985 18.5015C24.5 17.7867 24.6313 17.0718 24.6642 16.357L23.0222 16.7469Z" fill="white"/>
<path d="M23.7119 19.2164C23.482 19.2164 23.2521 19.0864 23.0879 18.8265C22.7267 18.3066 22.661 17.3318 22.9237 16.7145L22.9566 16.6495L24.7627 16.1946V16.3246L24.7299 17.0394C24.697 17.5268 24.6642 17.9817 24.7299 18.469V18.5015L24.697 18.534C24.3687 18.9889 24.0403 19.2164 23.7119 19.2164ZM23.1208 16.8444C22.9237 17.3968 22.9894 18.2741 23.285 18.6965C23.4163 18.8914 23.5477 18.9889 23.7119 18.9889C23.9418 18.9889 24.2045 18.794 24.4672 18.469C24.4015 17.9817 24.4343 17.4943 24.5 17.0394L24.5329 16.487L23.1208 16.8444Z" fill="black"/>
<path fill-rule="evenodd" clip-rule="evenodd" d="M23.1864 14.5374C22.2998 14.6024 21.5773 15.6747 22.0371 16.487C22.661 17.5917 24.0074 16.3895 24.8612 16.487C25.8464 16.5195 26.6345 17.5267 27.4227 16.6819C28.3093 15.7397 27.0286 14.8299 26.0763 14.4075L23.1864 14.5374Z" fill="#F6D2A2"/>
<path d="M26.7331 17.1368C26.4375 17.1368 26.142 17.0069 25.8464 16.8769C25.5509 16.7469 25.2225 16.617 24.8612 16.617H24.7627C24.5 16.617 24.2045 16.7144 23.8761 16.8444C23.5148 16.9744 23.1536 17.0718 22.8252 17.0718C22.4312 17.0718 22.1356 16.9094 21.9386 16.552C21.7087 16.1621 21.7415 15.7072 21.9714 15.2848C22.2341 14.7974 22.6939 14.505 23.1865 14.44L26.1091 14.31H26.142C26.8644 14.6024 27.6854 15.1548 27.8496 15.8046C27.9153 16.1296 27.8167 16.4545 27.554 16.7469C27.2913 17.0394 27.0286 17.1368 26.7331 17.1368ZM24.8941 16.422C25.2553 16.422 25.6165 16.5845 25.9449 16.7144C26.2405 16.8444 26.5032 16.9419 26.7659 16.9419C26.9958 16.9419 27.1928 16.8444 27.3898 16.6494C27.6197 16.422 27.6854 16.1621 27.6526 15.9021C27.5212 15.3498 26.7331 14.8299 26.1091 14.5699L23.2521 14.6999C22.8252 14.7324 22.4312 15.0248 22.2013 15.4147C22.0042 15.7722 22.0042 16.1621 22.1684 16.487C22.3326 16.7794 22.5297 16.9094 22.8581 16.9094C23.1536 16.9094 23.482 16.7794 23.8104 16.6819C24.1716 16.552 24.4672 16.4545 24.7956 16.4545C24.7956 16.3895 24.8284 16.3895 24.8941 16.422Z" fill="#231F20"/>
<path fill-rule="evenodd" clip-rule="evenodd" d="M23.0879 14.505C23.0223 12.9778 25.9778 12.7829 26.3062 14.0501C26.6674 15.3498 23.2193 15.6422 23.0879 14.505Z" fill="black"/>
</svg>
