<svg width="50" height="50" viewBox="0 0 50 50" fill="none" xmlns="http://www.w3.org/2000/svg">
<circle cx="25" cy="25" r="25" fill="#14142A"/>
<path d="M10.6832 35.4857L9.23914 34.638L25.3256 6.30621L26.7696 7.15398L10.6832 35.4857Z" fill="#E535AB"/>
<path d="M8.90848 32.3746H41.0815V34.0701H8.90848V32.3746Z" fill="#E535AB"/>
<path d="M25.6376 42.7751L9.5451 33.3271L10.3788 31.8588L26.4713 41.3068L25.6376 42.7751ZM39.6172 18.1512L23.5246 8.70318L24.3583 7.2348L40.4509 16.6828L39.6172 18.1512Z" fill="#E535AB"/>
<path d="M10.3832 18.1446L9.54953 16.6763L25.6421 7.22833L26.4758 8.6966L10.3832 18.1446Z" fill="#E535AB"/>
<path d="M39.3204 35.4861L23.2339 7.15429L24.678 6.30652L40.7645 34.6383L39.3204 35.4861ZM10.1841 15.552H11.8516V34.448H10.1841V15.552Z" fill="#E535AB"/>
<path d="M38.1484 15.552H39.8158V34.448H38.1484V15.552Z" fill="#E535AB"/>
<path d="M25.3538 42.0575L24.6255 40.7748L38.6217 32.5576L39.35 33.8401L25.3538 42.0575Z" fill="#E535AB"/>
<path d="M42.0257 34.9996C41.0614 36.7053 38.9118 37.2875 37.2344 36.307C35.5569 35.3264 34.9844 33.1406 35.9486 31.4348C36.9129 29.7291 39.0625 29.1469 40.7399 30.1274C42.4274 31.1182 43 33.2938 42.0257 34.9996ZM14.0413 18.5651C13.077 20.2709 10.9274 20.8531 9.24999 19.8725C7.57253 18.892 6.99999 16.7062 7.96427 15.0004C8.92856 13.2947 11.0781 12.7125 12.7556 13.693C14.433 14.6838 15.0056 16.8594 14.0413 18.5651ZM7.97432 34.9996C7.01003 33.2938 7.58258 31.1182 9.26003 30.1274C10.9375 29.1469 13.077 29.7291 14.0513 31.4348C15.0156 33.1406 14.4431 35.3162 12.7656 36.307C11.0781 37.2875 8.9386 36.7053 7.97432 34.9996ZM35.9587 18.5651C34.9944 16.8594 35.5669 14.6838 37.2444 13.693C38.9219 12.7125 41.0614 13.2947 42.0357 15.0004C43 16.7062 42.4274 18.8818 40.75 19.8725C39.0725 20.8531 36.923 20.2709 35.9587 18.5651ZM25 44.9991C23.0614 44.9991 21.4944 43.4057 21.4944 41.4344C21.4944 39.4631 23.0614 37.8697 25 37.8697C26.9386 37.8697 28.5056 39.4631 28.5056 41.4344C28.5056 43.3955 26.9386 44.9991 25 44.9991ZM25 12.1303C23.0614 12.1303 21.4944 10.5369 21.4944 8.56556C21.4944 6.59425 23.0614 5.00085 25 5.00085C26.9386 5.00085 28.5056 6.59425 28.5056 8.56556C28.5056 10.5369 26.9386 12.1303 25 12.1303Z" fill="#E535AB"/>
</svg>
