<svg width="20" height="20" viewBox="0 0 20 20" fill="none" xmlns="http://www.w3.org/2000/svg">
<path fill-rule="evenodd" clip-rule="evenodd" d="M9.96942 0.23999C4.46483 0.23999 0 4.70482 0 10.2094C0 14.6131 2.87462 18.344 6.78899 19.6895C7.27829 19.7507 7.46177 19.4449 7.46177 19.2002C7.46177 18.9556 7.46177 18.344 7.46177 17.4877C4.70948 18.0993 4.09786 16.1421 4.09786 16.1421C3.66972 14.9801 2.99694 14.6742 2.99694 14.6742C2.07951 14.0626 3.0581 14.0626 3.0581 14.0626C4.0367 14.1238 4.58716 15.1024 4.58716 15.1024C5.50459 16.6314 6.91131 16.2033 7.46177 15.9586C7.52294 15.2859 7.82875 14.8577 8.07339 14.6131C5.87156 14.3684 3.5474 13.5122 3.5474 9.65895C3.5474 8.55803 3.91437 7.70176 4.58716 6.96782C4.52599 6.78433 4.15902 5.74458 4.70948 4.39901C4.70948 4.39901 5.56575 4.15436 7.46177 5.43877C8.25688 5.19412 9.11315 5.13296 9.96942 5.13296C10.8257 5.13296 11.682 5.25528 12.4771 5.43877C14.3731 4.15436 15.2294 4.39901 15.2294 4.39901C15.7798 5.74458 15.4128 6.78433 15.3517 7.02898C15.9633 7.70176 16.3914 8.6192 16.3914 9.72011C16.3914 13.5733 14.0673 14.3684 11.8654 14.6131C12.2324 14.9189 12.5382 15.5305 12.5382 16.4479C12.5382 17.7935 12.5382 18.8333 12.5382 19.2002C12.5382 19.4449 12.7217 19.7507 13.211 19.6895C17.1865 18.344 20 14.6131 20 10.2094C19.9388 4.70482 15.474 0.23999 9.96942 0.23999Z" fill="white"/>
</svg>
