<svg width="32" height="32" viewBox="0 0 32 32" fill="none" xmlns="http://www.w3.org/2000/svg">
<path fill-rule="evenodd" clip-rule="evenodd" d="M22 12C22.3787 12 22.725 12.214 22.8944 12.5528L29.8944 26.5528C30.1414 27.0468 29.9412 27.6474 29.4472 27.8944C28.9532 28.1414 28.3525 27.9412 28.1055 27.4472L22 15.2361L15.8944 27.4472C15.6474 27.9412 15.0467 28.1414 14.5528 27.8944C14.0588 27.6474 13.8586 27.0468 14.1055 26.5528L21.1055 12.5528C21.2749 12.214 21.6212 12 22 12Z" fill="black"/>
<path fill-rule="evenodd" clip-rule="evenodd" d="M16 23C16 22.4477 16.4477 22 17 22H27C27.5523 22 28 22.4477 28 23C28 23.5523 27.5523 24 27 24H17C16.4477 24 16 23.5523 16 23Z" fill="black"/>
<path fill-rule="evenodd" clip-rule="evenodd" d="M11 3C11.5523 3 12 3.44772 12 4V7C12 7.55228 11.5523 8 11 8C10.4477 8 10 7.55228 10 7V4C10 3.44772 10.4477 3 11 3Z" fill="black"/>
<path fill-rule="evenodd" clip-rule="evenodd" d="M2 7C2 6.44772 2.44772 6 3 6H19C19.5523 6 20 6.44772 20 7C20 7.55228 19.5523 8 19 8H3C2.44772 8 2 7.55228 2 7Z" fill="black"/>
<path fill-rule="evenodd" clip-rule="evenodd" d="M15 6C15.5523 6 16 6.44772 16 7C16 10.4478 14.6304 13.7544 12.1924 16.1924C9.75442 18.6304 6.44781 20 3 20C2.44772 20 2 19.5523 2 19C2 18.4477 2.44772 18 3 18C5.91738 18 8.71527 16.8411 10.7782 14.7782C12.8411 12.7153 14 9.91738 14 7C14 6.44772 14.4477 6 15 6Z" fill="black"/>
<path fill-rule="evenodd" clip-rule="evenodd" d="M7.3542 10.0572C7.87489 9.87312 8.44624 10.146 8.63034 10.6667C9.38852 12.8112 10.7928 14.6679 12.6499 15.9812C14.507 17.2945 16.7256 17.9998 19.0001 18C19.5524 18.0001 20.0001 18.4478 20 19.0001C20 19.5524 19.5522 20.0001 18.9999 20C16.3118 19.9998 13.6899 19.1662 11.4951 17.6141C9.3004 16.062 7.64075 13.8677 6.74472 11.3334C6.56062 10.8127 6.8335 10.2413 7.3542 10.0572Z" fill="black"/>
</svg>
